<svg width="17" height="17" viewBox="0 0 17 17" fill="none" xmlns="http://www.w3.org/2000/svg">
<g clip-path="url(#clip0_93_847)">
<path d="M8.37711 1.49376C10.5935 1.49376 10.8559 1.50348 11.7275 1.54237C12.5376 1.57801 12.975 1.7141 13.2667 1.82751C13.6523 1.97656 13.9309 2.15802 14.2193 2.4464C14.5109 2.73802 14.6891 3.01345 14.8382 3.39904C14.9516 3.69066 15.0877 4.13134 15.1233 4.93816C15.1622 5.81304 15.1719 6.0755 15.1719 8.2886C15.1719 10.5049 15.1622 10.7674 15.1233 11.639C15.0877 12.4491 14.9516 12.8865 14.8382 13.1782C14.6891 13.5638 14.5077 13.8424 14.2193 14.1308C13.9277 14.4224 13.6523 14.6006 13.2667 14.7497C12.975 14.8631 12.5344 14.9992 11.7275 15.0348C10.8527 15.0737 10.5902 15.0834 8.37711 15.0834C6.16077 15.0834 5.89831 15.0737 5.02668 15.0348C4.21661 14.9992 3.77917 14.8631 3.48755 14.7497C3.10196 14.6006 2.8233 14.4192 2.53491 14.1308C2.24329 13.8392 2.06507 13.5638 1.91602 13.1782C1.80261 12.8865 1.66652 12.4459 1.63088 11.639C1.592 10.7642 1.58227 10.5017 1.58227 8.2886C1.58227 6.07226 1.592 5.8098 1.63088 4.93816C1.66652 4.1281 1.80261 3.69066 1.91602 3.39904C2.06507 3.01345 2.24653 2.73478 2.53491 2.4464C2.82654 2.15478 3.10196 1.97656 3.48755 1.82751C3.77917 1.7141 4.21985 1.57801 5.02668 1.54237C5.89831 1.50348 6.16077 1.49376 8.37711 1.49376ZM8.37711 0C6.12513 0 5.84322 0.00972079 4.95863 0.048604C4.07728 0.0874872 3.47135 0.230059 2.94643 0.434196C2.39882 0.648053 1.93546 0.929956 1.47535 1.39331C1.01199 1.85343 0.730084 2.31679 0.516227 2.86115C0.31209 3.38932 0.169518 3.99201 0.130635 4.87336C0.091752 5.76119 0.0820312 6.04309 0.0820312 8.29508C0.0820312 10.5471 0.091752 10.829 0.130635 11.7136C0.169518 12.5949 0.31209 13.2008 0.516227 13.7258C0.730084 14.2734 1.01199 14.7367 1.47535 15.1968C1.93546 15.657 2.39882 15.9421 2.94319 16.1527C3.47135 16.3569 4.07404 16.4994 4.95539 16.5383C5.83998 16.5772 6.12189 16.5869 8.37387 16.5869C10.6259 16.5869 10.9078 16.5772 11.7924 16.5383C12.6737 16.4994 13.2796 16.3569 13.8046 16.1527C14.3489 15.9421 14.8123 15.657 15.2724 15.1968C15.7325 14.7367 16.0177 14.2734 16.2283 13.729C16.4324 13.2008 16.575 12.5982 16.6139 11.7168C16.6527 10.8322 16.6625 10.5503 16.6625 8.29832C16.6625 6.04634 16.6527 5.76443 16.6139 4.87984C16.575 3.99849 16.4324 3.39256 16.2283 2.86763C16.0241 2.31679 15.7422 1.85343 15.2789 1.39331C14.8188 0.933196 14.3554 0.648053 13.811 0.437436C13.2829 0.233299 12.6802 0.0907274 11.7988 0.0518442C10.911 0.0097208 10.6291 0 8.37711 0Z" fill="white"/>
<path d="M8.37716 4.03418C6.02473 4.03418 4.11621 5.9427 4.11621 8.29513C4.11621 10.6476 6.02473 12.5561 8.37716 12.5561C10.7296 12.5561 12.6381 10.6476 12.6381 8.29513C12.6381 5.9427 10.7296 4.03418 8.37716 4.03418ZM8.37716 11.0591C6.851 11.0591 5.61321 9.82129 5.61321 8.29513C5.61321 6.76896 6.851 5.53118 8.37716 5.53118C9.90333 5.53118 11.1411 6.76896 11.1411 8.29513C11.1411 9.82129 9.90333 11.0591 8.37716 11.0591Z" fill="white"/>
<path d="M13.8013 3.86561C13.8013 4.41646 13.3541 4.86037 12.8065 4.86037C12.2557 4.86037 11.8118 4.41322 11.8118 3.86561C11.8118 3.31477 12.2589 2.87085 12.8065 2.87085C13.3541 2.87085 13.8013 3.31801 13.8013 3.86561Z" fill="white"/>
</g>
<defs>
<clipPath id="clip0_93_847">
<rect width="16.5902" height="16.5902" fill="white" transform="translate(0.0820312)"/>
</clipPath>
</defs>
</svg>
