<svg width="355" height="53" viewBox="0 0 355 53" fill="none" xmlns="http://www.w3.org/2000/svg">
<g id="Group 1261156476">
<g id="Group">
<path id="Vector" d="M315.78 15.1788C315.634 15.3361 315.51 15.6323 315.51 15.8518V32.5156C315.51 32.7241 315.634 32.7789 315.784 32.629L322.356 26.0673C322.505 25.9174 322.622 25.6174 322.622 25.4053V15.8518C322.622 15.6323 322.749 15.3361 322.895 15.1788L330.568 7.08466C330.71 6.92739 330.834 6.62747 330.834 6.42265V0.109726L330.564 0L315.776 15.1752" fill="#009046"/>
<path id="Vector_2" d="M330.801 15.4604H323.97V22.0038H330.801V15.4604Z" fill="#009046"/>
<path id="Vector_3" d="M347.31 0.109741L340.858 6.52873C340.705 6.67869 340.585 6.97861 340.585 7.19075V15.0728C340.585 15.2849 340.413 15.4605 340.202 15.4605H339.637C339.426 15.4605 339.254 15.2849 339.254 15.0728V7.19075C339.254 6.97861 339.127 6.67869 338.977 6.52873L332.529 0.109741H332.143V25.4017C332.143 25.6138 332.267 25.9137 332.416 26.0637L338.974 32.6253C339.123 32.768 339.251 32.7204 339.251 32.5119V22.4135C339.251 22.1977 339.422 22.0294 339.633 22.0294H340.195C340.403 22.0294 340.581 22.1977 340.581 22.4135V32.5119C340.581 32.7204 340.701 32.7753 340.855 32.6253L347.419 26.0637C347.572 25.9137 347.7 25.6138 347.7 25.4017V0.109741H347.306" fill="#009046"/>
<path id="Vector_4" d="M354.221 37.1387H309V37.5666H354.221V37.1387Z" fill="black"/>
<path id="Vector_5" d="M310.837 48.0565L309.011 52.4821H310.487L310.76 51.7433H312.616L312.874 52.4821H314.54L312.718 48.0565H310.84M311.139 50.7741L311.712 49.2233L312.262 50.7741H311.139Z" fill="black"/>
<path id="Vector_6" d="M316.593 48.0565H315.087V52.4785H318.24V51.3995H316.593V48.0565Z" fill="black"/>
<path id="Vector_7" d="M321.98 49.6914H320.387V48.0565H318.882V52.4785H320.387V50.7704H321.98V52.4785H323.486V48.0565H321.98V49.6914Z" fill="black"/>
<path id="Vector_8" d="M325.757 48.0565L323.934 52.4821H325.41L325.684 51.7433H327.539L327.798 52.4821H329.453L327.637 48.0565H325.76M326.048 50.7741L326.628 49.2233L327.185 50.7741H326.048Z" fill="black"/>
<path id="Vector_9" d="M333.834 50.5107C333.626 50.3425 333.389 50.2547 333.123 50.2437V50.2291C333.367 50.1596 333.572 50.0462 333.739 49.8816C333.903 49.7353 333.984 49.5049 333.984 49.205C333.998 48.4406 333.477 48.0602 332.416 48.0529H329.923V52.4785H332.62C332.999 52.4785 333.276 52.4529 333.459 52.3944L333.703 52.2883L333.878 52.131C334.056 51.9591 334.14 51.6848 334.148 51.3373C334.14 50.9643 334.035 50.6826 333.838 50.5071M331.425 48.8685H331.906L332.223 48.8941L332.416 48.9928C332.5 49.077 332.536 49.2013 332.533 49.3549C332.533 49.5012 332.489 49.6183 332.398 49.7097C332.307 49.7975 332.139 49.8414 331.909 49.8414H331.425V48.8685ZM332.504 51.5568C332.383 51.6446 332.186 51.6848 331.909 51.6848H331.425V50.6278H331.909C332.186 50.6278 332.387 50.6607 332.504 50.7485C332.62 50.8326 332.675 50.9752 332.675 51.1581C332.675 51.341 332.624 51.4727 332.504 51.5568Z" fill="black"/>
<path id="Vector_10" d="M334.578 49.1282H335.759V52.4785H337.253V49.1282H338.434V48.0565H334.578V49.1282Z" fill="black"/>
<path id="Vector_11" d="M341.201 47.9431C340.742 47.9431 340.392 47.9834 340.133 48.0711C339.87 48.1516 339.659 48.2723 339.491 48.4296C339.043 48.7917 338.813 49.4025 338.802 50.2657C338.799 50.9386 338.974 51.4909 339.338 51.9262C339.714 52.3651 340.333 52.5882 341.197 52.5955C342.108 52.5882 342.746 52.3249 343.118 51.8311C343.424 51.4763 343.581 50.9533 343.585 50.273C343.585 49.589 343.41 49.0367 343.049 48.6088C342.684 48.1699 342.065 47.9504 341.197 47.9431M341.197 51.586C340.938 51.586 340.734 51.48 340.581 51.2605C340.421 51.0484 340.337 50.7192 340.337 50.2693C340.337 49.8194 340.421 49.4756 340.581 49.2635C340.738 49.0477 340.938 48.9416 341.197 48.9416C341.74 48.9416 342.028 49.3805 342.046 50.2693C342.028 51.1581 341.74 51.5933 341.197 51.586Z" fill="black"/>
<path id="Vector_12" d="M346.628 47.9431C346.176 47.9431 345.823 47.9834 345.564 48.0711C345.305 48.1516 345.083 48.2723 344.926 48.4296C344.474 48.7917 344.244 49.4025 344.241 50.2657C344.23 50.9386 344.412 51.4909 344.784 51.9262C345.152 52.3651 345.768 52.5882 346.628 52.5955C347.543 52.5882 348.181 52.3249 348.553 51.8311C348.866 51.4763 349.016 50.9533 349.023 50.273C349.023 49.589 348.852 49.0367 348.487 48.6088C348.119 48.1699 347.5 47.9504 346.628 47.9431ZM346.628 51.586C346.377 51.586 346.176 51.48 346.02 51.2605C345.852 51.0484 345.768 50.7192 345.768 50.2693C345.768 49.8194 345.852 49.4756 346.02 49.2635C346.176 49.0477 346.377 48.9416 346.628 48.9416C347.182 48.9416 347.474 49.3805 347.492 50.2693C347.474 51.1581 347.182 51.5933 346.628 51.586Z" fill="black"/>
<path id="Vector_13" d="M354.006 50.9972C353.977 50.7704 353.889 50.6168 353.769 50.5217C353.642 50.4303 353.492 50.3864 353.314 50.3864V50.3242C353.543 50.2766 353.729 50.1596 353.868 49.9804C354.017 49.8048 354.086 49.5634 354.086 49.2818C354.086 48.7917 353.944 48.4735 353.653 48.2942C353.375 48.126 352.971 48.0492 352.471 48.0565H349.873V52.4821H351.378V50.8765H351.848C352.111 50.8728 352.275 50.9057 352.358 50.9789C352.446 51.052 352.497 51.2349 352.515 51.4946L352.65 52.4821H354.199L354.01 51.0008M352.446 49.8999C352.333 49.9877 352.184 50.017 352.001 50.017H351.382V48.9453H351.972C352.395 48.9453 352.614 49.1135 352.614 49.4756C352.614 49.6805 352.555 49.8194 352.45 49.8963" fill="black"/>
<path id="Vector_14" d="M311.916 46.2826C312.153 46.1216 312.273 45.8949 312.299 45.6023V41.9594H310.804V45.189C310.804 45.3536 310.677 45.4377 310.513 45.4377L309 45.445V46.5167H310.921C311.3 46.5167 311.668 46.4435 311.912 46.2862" fill="black"/>
<path id="Vector_15" d="M354.214 40.3318H352.705V44.7794H354.214V40.3318Z" fill="black"/>
<path id="Vector_16" d="M316.553 45.7011V44.7794H350.755C351.75 44.7794 352.063 44.4648 352.063 43.8247V40.3281H350.554V43.3566L350.445 43.6784H348.371V42.7165C348.371 42.1606 347.963 41.8862 347.15 41.8789H344.784V42.9579H346.873C347.022 42.9579 347.139 43.0749 347.139 43.2286V43.6784H339.043V41.9557H337.538V43.6784H328.95V41.9557H327.441V43.6784H316.549C316.556 43.4919 316.556 41.9996 316.549 41.9557H314.194C313.83 41.9338 313.524 42.0325 313.298 42.2337C313.072 42.4532 312.959 42.9396 312.951 43.4553C312.959 43.9272 313.068 44.271 313.283 44.4721C313.502 44.6733 313.779 44.772 314.125 44.7794H315.317V45.1927C315.317 45.3426 315.197 45.4341 315.047 45.4341H312.955V46.513H315.324C316.137 46.5277 316.553 46.2533 316.553 45.7011ZM315.324 43.9418H315.04C314.796 43.9418 314.617 43.9015 314.511 43.8247C314.413 43.7443 314.366 43.598 314.366 43.4114C314.366 43.2468 314.406 43.1188 314.482 43.0311C314.562 42.9433 314.701 42.9067 314.901 42.9067H315.321V43.9418H315.324Z" fill="black"/>
<path id="Vector_17" d="M339.039 45.2804H337.534V46.3996H339.039V45.2804Z" fill="black"/>
<path id="Vector_18" d="M327.933 40.3428H326.424V41.4583H327.933V40.3428Z" fill="black"/>
<path id="Vector_19" d="M329.934 40.3428H328.425V41.4583H329.934V40.3428Z" fill="black"/>
</g>
<g id="Group 1261156475">
<g id="Group_2">
<path id="Vector_20" d="M17.9823 33.4331C16.4512 34.2013 14.9201 34.7616 13.452 35.105C11.966 35.4755 10.4529 35.6563 8.95781 35.6563C7.24658 35.6563 5.77852 35.4032 4.4996 34.8791C3.22068 34.364 2.20294 33.6048 1.44639 32.5656C0.671837 31.5263 0.203512 30.2972 0.0504019 28.8784C-0.0937016 27.4776 0.0684028 25.9594 0.572765 24.3417C1.60851 20.9437 3.56291 18.2054 6.45399 16.1178C9.35407 14.0393 12.6504 13 16.3701 13C17.6941 13 18.955 13.1536 20.1258 13.4338C21.3057 13.723 22.4045 14.1748 23.4672 14.7803L21.9001 19.9135C20.9364 19.1182 19.9007 18.5398 18.8019 18.1512C17.7031 17.7807 16.5412 17.5819 15.3254 17.5819C13.1188 17.5819 11.2094 18.1693 9.58825 19.3893C7.95808 20.5822 6.81426 22.227 6.18381 24.3417C5.57137 26.3841 5.66145 28.0108 6.50805 29.2489C7.33665 30.4689 8.77767 31.0744 10.8041 31.0744C12.1101 31.0744 13.4971 30.8485 14.9561 30.3876C16.4242 29.9267 17.9463 29.2308 19.5224 28.3271L17.9823 33.4331Z" fill="black"/>
<path id="Vector_21" d="M25.1064 35.2675L41.291 13.3794H47.5775L49.4058 35.2675H43.6237L43.3625 31.011H33.9687L30.9426 35.2675H25.1154M36.6977 27.2606H43.1283L42.6059 18.9463L36.6977 27.2606Z" fill="black"/>
<path id="Vector_22" d="M57.2236 35.2675L63.8884 13.3794H71.9583C74.9124 13.3794 76.9568 13.9036 78.0556 14.9338C79.1544 15.9731 79.3616 17.5636 78.7041 19.7416C78.3528 20.9526 77.7044 21.9828 76.8397 22.8414C75.9391 23.7089 74.7683 24.4229 73.2912 25.0103C73.7775 25.2181 74.1558 25.5344 74.444 26.0044C74.7412 26.4743 74.9304 27.0617 75.0385 27.7666L76.2363 35.2585H70.0849L69.2203 28.9595C69.0762 27.9564 68.788 27.2696 68.3376 26.881C67.8693 26.5105 67.1218 26.3297 66.077 26.3297H65.7348L65.4286 26.3478L62.7266 35.2585H57.2326M69.2743 22.3533C70.265 22.3533 71.0846 22.1455 71.706 21.7207C72.3455 21.296 72.7868 20.6453 73.039 19.7868C73.3002 18.9644 73.2282 18.3318 72.8409 17.907C72.4536 17.4733 71.7871 17.2744 70.8144 17.2744H68.2025L66.6444 22.3624H69.2653L69.2743 22.3533Z" fill="black"/>
<path id="Vector_23" d="M107.849 35.2675L114.514 13.3794H122.566C125.547 13.3794 127.573 13.9036 128.672 14.9338C129.771 15.9731 129.987 17.5636 129.311 19.7416C128.942 20.9526 128.33 21.9828 127.438 22.8414C126.555 23.7089 125.376 24.4229 123.917 25.0103C124.385 25.2181 124.763 25.5344 125.06 26.0044C125.349 26.4743 125.565 27.0617 125.655 27.7666L126.853 35.2585H120.692L119.846 28.9595C119.683 27.9564 119.395 27.2696 118.936 26.881C118.477 26.5105 117.738 26.3297 116.675 26.3297H116.333L116.018 26.3478L113.307 35.2585H107.831M119.864 22.3533C120.854 22.3533 121.674 22.1455 122.295 21.7207C122.917 21.296 123.358 20.6453 123.619 19.7868C123.88 18.9644 123.817 18.3318 123.439 17.907C123.043 17.4733 122.376 17.2744 121.404 17.2744H118.792L117.234 22.3624H119.864V22.3533Z" fill="black"/>
<path id="Vector_24" d="M136.417 35.2675L143.073 13.3794H157.655L156.421 17.41H147.306L145.955 21.8744H154.656L153.431 25.9411H144.703L143.118 31.1646H152.503L151.26 35.2675H136.417Z" fill="black"/>
<path id="Vector_25" d="M173.704 21.5219L169.516 35.2675H164.104L170.786 13.3794H175.578L183.287 26.4382L187.277 13.3794H192.672L185.989 35.2675H181.72L173.704 21.5219Z" fill="black"/>
<path id="Vector_26" d="M203.651 35.2675L209.064 17.4642H201.849L203.092 13.3794H223.276L222.033 17.4642H214.828L209.388 35.2675H203.651Z" fill="black"/>
<path id="Vector_27" d="M225.5 35.2675L241.685 13.3794H247.981L249.818 35.2675H244.036L243.774 31.011H234.372L231.337 35.2675H225.518M237.101 27.2606H243.54L243.027 18.9463L237.101 27.2606Z" fill="black"/>
<path id="Vector_28" d="M258.851 35.2675L265.525 13.3794H270.974L265.597 31.0471H275L273.721 35.2675H258.851Z" fill="black"/>
</g>
</g>
</g>
</svg>
